<svg width="24" height="24" viewBox="0 0 24 24" fill="none" xmlns="http://www.w3.org/2000/svg">
<path d="M4.27441 6.9873L10.4248 11.5996C11.3584 12.2998 12.6416 12.2998 13.5752 11.5996L19.7246 6.9873C19.8994 7.28418 20 7.63086 20 8V16C20 16.5732 19.7588 17.0908 19.3721 17.4551C19.0137 17.793 18.5312 18 18 18H6C4.89551 18 4 17.1045 4 16V8C4 7.63086 4.09961 7.28418 4.27441 6.9873Z" fill="white"/>
<path d="M5.24023 6.14941C5.47461 6.05273 5.73145 6 6 6H18C18.2686 6 18.5254 6.05371 18.7598 6.14941L12.8252 10.5996C12.3359 10.9668 11.6641 10.9668 11.1748 10.5996L5.24023 6.14941Z" fill="white"/>
</svg>
