<svg width="20" height="20" viewBox="0 0 20 20" fill="none" xmlns="http://www.w3.org/2000/svg">
<path fill-rule="evenodd" clip-rule="evenodd" d="M8.50058 8.23322H10.6671V9.31239C10.9792 8.69172 11.7795 8.13405 12.9817 8.13405C15.2865 8.13405 15.8337 9.36955 15.8337 11.6364V15.8346H13.5003V12.1526C13.5003 10.8617 13.1882 10.1337 12.3937 10.1337C11.2918 10.1337 10.8339 10.9183 10.8339 12.1521V15.8346H8.50058V8.23322ZM4.49949 15.7355H6.83283V8.13405H4.49949V15.7355ZM7.16708 5.65547C7.16716 5.85105 7.12837 6.04469 7.05297 6.22514C6.97756 6.4056 6.86704 6.56927 6.72783 6.70664C6.44573 6.987 6.06388 7.14393 5.66616 7.14297C5.26914 7.1427 4.88817 6.98617 4.60566 6.70722C4.46695 6.56938 4.3568 6.40553 4.28153 6.22505C4.20625 6.04457 4.16733 5.85102 4.16699 5.65547C4.16699 5.26055 4.32449 4.88255 4.60624 4.60372C4.88851 4.32439 5.26963 4.16779 5.66674 4.16797C6.06458 4.16797 6.44608 4.32489 6.72783 4.60372C7.00899 4.88255 7.16708 5.26055 7.16708 5.65547Z" fill="white"/>
</svg>
