<svg width="20" height="20" viewBox="0 0 20 20" fill="none" xmlns="http://www.w3.org/2000/svg">
<path d="M11.0013 10C11.0013 12.4999 8.9863 14.5264 6.50065 14.5264C4.01501 14.5264 2 12.4999 2 10C2 7.50014 4.01501 5.4736 6.50065 5.4736C8.9863 5.4736 11.0013 7.50014 11.0013 10Z" fill="white"/>
<path d="M16 10.0001C16 12.3537 14.995 14.2617 13.7552 14.2617C12.5155 14.2617 11.5105 12.3537 11.5105 10.0001C11.5105 7.64641 12.5155 5.73841 13.7552 5.73841C14.995 5.73841 16 7.64641 16 10.0001Z" fill="white"/>
<path d="M18 9.99997C18 12.0977 17.646 13.7983 17.2094 13.7983C16.7727 13.7983 16.4188 12.0977 16.4188 9.99997C16.4188 7.9022 16.7727 6.20163 17.2094 6.20163C17.646 6.20163 18 7.9022 18 9.99997Z" fill="white"/>
</svg>
