<svg width="20" height="20" viewBox="0 0 20 20" fill="none" xmlns="http://www.w3.org/2000/svg">
<g clip-path="url(#clip0_8479_20687)">
<path fill-rule="evenodd" clip-rule="evenodd" d="M14.5365 5.58418C14.6806 5.5235 14.8384 5.50258 14.9934 5.52358C15.1484 5.54458 15.2949 5.60673 15.4177 5.70358C15.5405 5.80042 15.6351 5.92841 15.6917 6.07423C15.7482 6.22004 15.7647 6.37835 15.7393 6.53268L14.4163 14.5576C14.288 15.3317 13.4386 15.7756 12.7287 15.39C12.1349 15.0674 11.2529 14.5704 10.4595 14.0518C10.0629 13.7923 8.8478 12.961 8.99713 12.3695C9.12546 11.8638 11.1671 9.96326 12.3338 8.83334C12.7917 8.38943 12.5829 8.13334 12.0421 8.54168C10.6987 9.55551 8.5433 11.0973 7.83046 11.5313C7.20163 11.9139 6.8738 11.9793 6.4818 11.9139C5.76663 11.7949 5.10338 11.6106 4.56205 11.386C3.83055 11.0827 3.86613 10.077 4.56146 9.78418L14.5365 5.58418Z" fill="white"/>
</g>
<defs>
<clipPath id="clip0_8479_20687">
<rect width="14" height="14" fill="white" transform="translate(3 3)"/>
</clipPath>
</defs>
</svg>
