<svg width="20" height="20" viewBox="0 0 20 20" fill="none" xmlns="http://www.w3.org/2000/svg">
<path d="M16.6666 5.92934C16.1759 6.14267 15.6493 6.28934 15.0959 6.35334C15.6613 6.02 16.0933 5.492 16.2986 4.864C15.7599 5.17796 15.1721 5.39883 14.5599 5.51734C14.3024 5.24743 13.9926 5.03281 13.6495 4.88656C13.3063 4.74031 12.9369 4.66549 12.5639 4.66667C11.0533 4.66667 9.82925 5.87334 9.82925 7.36C9.82925 7.57067 9.85325 7.776 9.89992 7.97334C8.81635 7.92188 7.75541 7.64513 6.78478 7.16073C5.81415 6.67634 4.95515 5.99493 4.26259 5.16C4.01934 5.56947 3.89127 6.03707 3.89192 6.51334C3.89192 7.44667 4.37592 8.27334 5.10925 8.75467C4.67518 8.74106 4.2504 8.6255 3.86925 8.41734V8.45067C3.87337 9.07662 4.09432 9.68179 4.49447 10.1631C4.89463 10.6445 5.44926 10.9723 6.06392 11.0907C5.6604 11.1974 5.23817 11.2129 4.82792 11.136C5.00675 11.6745 5.34882 12.1439 5.80662 12.4792C6.26441 12.8144 6.81523 12.9988 7.38259 13.0067C6.4092 13.7567 5.2141 14.162 3.98525 14.1587C3.76525 14.1587 3.54792 14.1453 3.33325 14.1213C4.58721 14.9151 6.0412 15.3354 7.52525 15.3333C12.5573 15.3333 15.3079 11.2293 15.3079 7.66934L15.2986 7.32C15.835 6.94304 16.2985 6.47185 16.6666 5.92934Z" fill="#232528"/>
<path d="M16.6666 5.92934C16.1759 6.14267 15.6493 6.28934 15.0959 6.35334C15.6613 6.02 16.0933 5.492 16.2986 4.864C15.7599 5.17796 15.1721 5.39883 14.5599 5.51734C14.3024 5.24743 13.9926 5.03281 13.6495 4.88656C13.3063 4.74031 12.9369 4.66549 12.5639 4.66667C11.0533 4.66667 9.82925 5.87334 9.82925 7.36C9.82925 7.57067 9.85325 7.776 9.89992 7.97334C8.81635 7.92188 7.75541 7.64513 6.78478 7.16073C5.81415 6.67634 4.95515 5.99493 4.26259 5.16C4.01934 5.56947 3.89127 6.03707 3.89192 6.51334C3.89192 7.44667 4.37592 8.27334 5.10925 8.75467C4.67518 8.74106 4.2504 8.6255 3.86925 8.41734V8.45067C3.87337 9.07662 4.09432 9.68179 4.49447 10.1631C4.89463 10.6445 5.44926 10.9723 6.06392 11.0907C5.6604 11.1974 5.23817 11.2129 4.82792 11.136C5.00675 11.6745 5.34882 12.1439 5.80662 12.4792C6.26441 12.8144 6.81523 12.9988 7.38259 13.0067C6.4092 13.7567 5.2141 14.162 3.98525 14.1587C3.76525 14.1587 3.54792 14.1453 3.33325 14.1213C4.58721 14.9151 6.0412 15.3354 7.52525 15.3333C12.5573 15.3333 15.3079 11.2293 15.3079 7.66934L15.2986 7.32C15.835 6.94304 16.2985 6.47185 16.6666 5.92934Z" fill="white" fill-opacity="0.9"/>
</svg>
