<svg width="20" height="20" viewBox="0 0 20 20" fill="none" xmlns="http://www.w3.org/2000/svg">
<path d="M13.8973 5.33466H6.10259C4.57325 5.33466 3.33325 6.56132 3.33325 8.07332V11.9267C3.33325 13.44 4.57325 14.6653 6.10259 14.6653H13.8973C15.4266 14.6653 16.6666 13.4387 16.6666 11.9267V8.07332C16.6666 6.55999 15.4266 5.33466 13.8973 5.33466ZM12.0253 10.188L8.37859 11.908C8.35628 11.9185 8.33167 11.9233 8.30704 11.9218C8.28241 11.9203 8.25856 11.9126 8.23769 11.8994C8.21682 11.8863 8.1996 11.8681 8.18764 11.8465C8.17568 11.8249 8.16935 11.8007 8.16925 11.776V8.22932C8.16947 8.20433 8.17608 8.17981 8.18844 8.15809C8.2008 8.13637 8.21851 8.11816 8.23988 8.10521C8.26125 8.09225 8.28558 8.08497 8.31055 8.08406C8.33553 8.08314 8.36032 8.08863 8.38258 8.09999L12.0279 9.92666C12.0519 9.93918 12.0719 9.95809 12.0858 9.9813C12.0997 10.0045 12.1069 10.0311 12.1066 10.0581C12.1064 10.0852 12.0986 10.1116 12.0843 10.1345C12.0699 10.1575 12.0495 10.176 12.0253 10.188Z" fill="white"/>
</svg>
